<svg xmlns="http://www.w3.org/2000/svg" viewBox="0 0 600 340">
  <rect width="600" height="340" fill="#f0f4f8" rx="12"/>
  <text x="300" y="30" text-anchor="middle" font-size="14" fill="#333" font-weight="bold">⚡ 三合一: 24小时无人Agent工厂</text>
  <rect x="20" y="50" width="175" height="130" rx="8" fill="#fff" stroke="#4a90d9" stroke-width="2"/>
  <rect x="30" y="58" width="155" height="16" rx="4" fill="#4a90d9"/>
  <text x="107" y="70" text-anchor="middle" font-size="10" fill="#fff">🎛️ Dashboard</text>
  <text x="40" y="95" font-size="10" fill="#333">▶ 任务引擎运行中</text>
  <text x="40" y="112" font-size="10" fill="#333">▶ 3个Agent在线</text>
  <rect x="30" y="145" width="155" height="25" rx="4" fill="#e8f5e9"/>
  <text x="107" y="163" text-anchor="middle" font-size="9" fill="#2e7d32">系统状态: 正常</text>
  <text x="210" y="115" font-size="18" fill="#999">→</text>
  <rect x="230" y="50" width="165" height="130" rx="8" fill="#fff" stroke="#ffb74d" stroke-width="2"/>
  <rect x="240" y="58" width="145" height="16" rx="4" fill="#ffb74d"/>
  <text x="312" y="70" text-anchor="middle" font-size="10" fill="#fff">🏗️ Kanban</text>
  <rect x="240" y="82" width="68" height="40" rx="4" fill="#f8f9fa" stroke="#ddd" stroke-width="1"/>
  <text x="274" y="100" text-anchor="middle" font-size="8" fill="#333">待办</text>
  <rect x="314" y="82" width="68" height="40" rx="4" fill="#fff8e1" stroke="#ffb74d" stroke-width="1"/>
  <text x="348" y="100" text-anchor="middle" font-size="8" fill="#333">执行中</text>
  <rect x="240" y="130" width="142" height="18" rx="4" fill="#e3f2fd"/>
  <text x="311" y="143" text-anchor="middle" font-size="8" fill="#1565c0">3任务已分配</text>
  <text x="410" y="115" font-size="18" fill="#999">→</text>
  <rect x="430" y="50" width="150" height="130" rx="8" fill="#fff" stroke="#66bb6a" stroke-width="2"/>
  <rect x="440" y="58" width="130" height="16" rx="4" fill="#66bb6a"/>
  <text x="505" y="70" text-anchor="middle" font-size="10" fill="#fff">🧹 Curator</text>
  <text x="440" y="95" font-size="10" fill="#333">▶ 技能体检中</text>
  <text x="440" y="112" font-size="10" fill="#333">▶ 老化项: 2</text>
  <rect x="440" y="145" width="130" height="25" rx="4" fill="#fce4ec"/>
  <text x="505" y="163" text-anchor="middle" font-size="9" fill="#c62828">需归档: 1</text>
  <rect x="20" y="200" width="560" height="120" rx="8" fill="#fff" stroke="#4a90d9" stroke-width="1" stroke-dasharray="6,3"/>
  <text x="300" y="225" text-anchor="middle" font-size="11" fill="#333" font-weight="bold">⏰ Cron定时: 每天凌晨3点自动执行</text>
  <rect x="30" y="240" width="170" height="60" rx="6" fill="#e3f2fd"/>
  <text x="115" y="260" text-anchor="middle" font-size="9" fill="#1565c0">Dashboard晨检</text>
  <text x="115" y="280" text-anchor="middle" font-size="8" fill="#666">3:00 → 运行状况报告</text>
  <rect x="210" y="240" width="170" height="60" rx="6" fill="#fff3e0"/>
  <text x="295" y="260" text-anchor="middle" font-size="9" fill="#e65100">Kanban任务分派</text>
  <text x="295" y="280" text-anchor="middle" font-size="8" fill="#666">3:10 → 优先级调度</text>
  <rect x="390" y="240" width="170" height="60" rx="6" fill="#fce4ec"/>
  <text x="475" y="260" text-anchor="middle" font-size="9" fill="#c62828">Curator技能整理</text>
  <text x="475" y="280" text-anchor="middle" font-size="8" fill="#666">3:20 → 归档老化项</text>
</svg>