<svg xmlns="http://www.w3.org/2000/svg" viewBox="0 0 600 340">
  <rect width="600" height="340" fill="#f0f4f8" rx="12"/>
  <rect x="40" y="40" width="250" height="180" rx="8" fill="#fff" stroke="#4a90d9" stroke-width="2"/>
  <rect x="50" y="50" width="60" height="12" rx="3" fill="#4a90d9"/>
  <rect x="120" y="50" width="80" height="12" rx="3" fill="#e0e6ed"/>
  <rect x="50" y="75" width="230" height="3" rx="1" fill="#e0e6ed"/>
  <rect x="60" y="100" width="30" height="60" rx="3" fill="#5b9bd5" opacity=".7"/>
  <rect x="100" y="80" width="30" height="80" rx="3" fill="#4a90d9" opacity=".9"/>
  <rect x="140" y="120" width="30" height="40" rx="3" fill="#7cb342" opacity=".7"/>
  <rect x="180" y="90" width="30" height="70" rx="3" fill="#ffb74d" opacity=".7"/>
  <rect x="220" y="110" width="30" height="50" rx="3" fill="#e57373" opacity=".7"/>
  <rect x="40" y="230" width="75" height="70" rx="6" fill="#e8f5e9"/>
  <circle cx="58" cy="252" r="8" fill="#66bb6a"/>
  <text x="58" y="272" text-anchor="middle" font-size="10" fill="#333">Agent A</text>
  <rect x="125" y="230" width="75" height="70" rx="6" fill="#fff3e0"/>
  <circle cx="143" cy="252" r="8" fill="#ffa726"/>
  <text x="143" y="272" text-anchor="middle" font-size="10" fill="#333">Agent B</text>
  <rect x="210" y="230" width="75" height="70" rx="6" fill="#fce4ec"/>
  <circle cx="228" cy="252" r="8" fill="#ef5350"/>
  <text x="228" y="272" text-anchor="middle" font-size="10" fill="#333">Agent C</text>
  <rect x="310" y="40" width="250" height="260" rx="8" fill="#fff" stroke="#4a90d9" stroke-width="2"/>
  <rect x="320" y="55" width="230" height="16" rx="4" fill="#4a90d9"/>
  <text x="435" y="67" text-anchor="middle" font-size="11" fill="#fff" font-weight="bold">Hermes Dashboard</text>
  <rect x="325" y="90" width="100" height="25" rx="4" fill="#e3f2fd"/>
  <text x="375" y="107" text-anchor="middle" font-size="10" fill="#1565c0">📊 状态</text>
  <rect x="435" y="90" width="110" height="25" rx="4" fill="#e8f5e9"/>
  <text x="490" y="107" text-anchor="middle" font-size="10" fill="#2e7d32">⚙️ 配置</text>
  <rect x="325" y="125" width="220" height="16" rx="3" fill="#e0e0e0"/>
  <rect x="325" y="125" width="160" height="16" rx="3" fill="#66bb6a"/>
  <text x="435" y="137" text-anchor="middle" font-size="9" fill="#333">CPU 74%</text>
  <rect x="325" y="148" width="220" height="16" rx="3" fill="#e0e0e0"/>
  <rect x="325" y="148" width="120" height="16" rx="3" fill="#42a5f5"/>
  <text x="435" y="160" text-anchor="middle" font-size="9" fill="#333">MEM 52%</text>
  <text x="435" y="270" text-anchor="middle" font-size="12" fill="#4a90d9">Web Dashboard</text>
  <text x="435" y="285" text-anchor="middle" font-size="9" fill="#888">http://127.0.0.1:9119</text>
</svg>