<svg xmlns="http://www.w3.org/2000/svg" viewBox="0 0 600 340">
  <rect width="600" height="340" fill="#f0f4f8" rx="12"/>
  <text x="300" y="30" text-anchor="middle" font-size="14" fill="#333" font-weight="bold">Kanban Board</text>
  <rect x="20" y="45" width="175" height="280" rx="8" fill="#fff" stroke="#e0e0e0" stroke-width="1.5"/>
  <rect x="20" y="45" width="175" height="30" rx="8" fill="#e3f2fd"/>
  <rect x="20" y="65" width="175" height="10" fill="#e3f2fd"/>
  <text x="107" y="65" text-anchor="middle" font-size="12" fill="#1565c0" font-weight="bold">📋 待办</text>
  <rect x="30" y="85" width="155" height="55" rx="6" fill="#f8f9fa" stroke="#e0e0e0" stroke-width="1"/>
  <text x="107" y="105" text-anchor="middle" font-size="10" fill="#333">研究API文档</text>
  <rect x="30" y="150" width="155" height="55" rx="6" fill="#f8f9fa" stroke="#e0e0e0" stroke-width="1"/>
  <text x="107" y="170" text-anchor="middle" font-size="10" fill="#333">编写测试用例</text>
  <rect x="212" y="45" width="175" height="280" rx="8" fill="#fff" stroke="#e0e0e0" stroke-width="1.5"/>
  <rect x="212" y="45" width="175" height="30" rx="8" fill="#fff3e0"/>
  <rect x="212" y="65" width="175" height="10" fill="#fff3e0"/>
  <text x="299" y="65" text-anchor="middle" font-size="12" fill="#e65100" font-weight="bold">🔄 进行中</text>
  <rect x="222" y="85" width="155" height="55" rx="6" fill="#fff8e1" stroke="#ffb74d" stroke-width="1.5"/>
  <text x="299" y="105" text-anchor="middle" font-size="10" fill="#333">Agent A: 60%</text>
  <rect x="222" y="150" width="155" height="55" rx="6" fill="#fff8e1" stroke="#ffb74d" stroke-width="1.5"/>
  <text x="299" y="170" text-anchor="middle" font-size="10" fill="#333">Agent B: 30%</text>
  <rect x="404" y="45" width="175" height="280" rx="8" fill="#fff" stroke="#e0e0e0" stroke-width="1.5"/>
  <rect x="404" y="45" width="175" height="30" rx="8" fill="#e8f5e9"/>
  <rect x="404" y="65" width="175" height="10" fill="#e8f5e9"/>
  <text x="491" y="65" text-anchor="middle" font-size="12" fill="#2e7d32" font-weight="bold">✅ 完成</text>
  <rect x="414" y="85" width="155" height="55" rx="6" fill="#f1f8e9" stroke="#a5d6a7" stroke-width="1.5"/>
  <text x="491" y="105" text-anchor="middle" font-size="10" fill="#333">环境配置</text>
  <rect x="414" y="150" width="155" height="55" rx="6" fill="#f1f8e9" stroke="#a5d6a7" stroke-width="1.5"/>
  <text x="491" y="170" text-anchor="middle" font-size="10" fill="#333">数据收集</text>
</svg>