<svg xmlns="http://www.w3.org/2000/svg" viewBox="0 0 800 520">
<rect width="100%" height="100%" fill="#ffffff"/>
<rect x="0" y="0" width="100%" height="100%" fill="#f8f9fa" rx="12"/>
<text x="400" y="40" text-anchor="middle" font-family="sans-serif" font-size="22" font-weight="bold" fill="#2c3e50">Hexo Theme GitHub ⭐ Chart</text>
<text x="400" y="62" text-anchor="middle" font-family="sans-serif" font-size="13" fill="#95a5a6">Data: GitHub Official Repos (May 2026)</text>
<text x="170" y="110" text-anchor="end" font-family="sans-serif" font-size="14" fill="#34495e">Butterfly</text>
<rect x="180" y="90" width="480" height="30" rx="4" fill="#ecf0f1"/>
<rect x="180" y="90" width="235" height="30" rx="4" fill="#FF6B6B" opacity="0.85"/>
<text x="423" y="110" font-family="sans-serif" font-size="13" font-weight="bold" fill="#2c3e50">⭐ 4.9k</text>
<text x="170" y="148" text-anchor="end" font-family="sans-serif" font-size="14" fill="#34495e">NexT</text>
<rect x="180" y="128" width="480" height="30" rx="4" fill="#ecf0f1"/>
<rect x="180" y="128" width="422" height="30" rx="4" fill="#4ECDC4" opacity="0.85"/>
<text x="610" y="148" font-family="sans-serif" font-size="13" font-weight="bold" fill="#2c3e50">⭐ 8.8k</text>
<text x="170" y="186" text-anchor="end" font-family="sans-serif" font-size="14" fill="#34495e">Fluid</text>
<rect x="180" y="166" width="480" height="30" rx="4" fill="#ecf0f1"/>
<rect x="180" y="166" width="345" height="30" rx="4" fill="#45B7D1" opacity="0.85"/>
<text x="533" y="186" font-family="sans-serif" font-size="13" font-weight="bold" fill="#2c3e50">⭐ 7.2k</text>
<text x="170" y="224" text-anchor="end" font-family="sans-serif" font-size="14" fill="#34495e">Matery</text>
<rect x="180" y="204" width="480" height="30" rx="4" fill="#ecf0f1"/>
<rect x="180" y="204" width="206" height="30" rx="4" fill="#96CEB4" opacity="0.85"/>
<text x="394" y="224" font-family="sans-serif" font-size="13" font-weight="bold" fill="#2c3e50">⭐ 4.3k</text>
<text x="170" y="262" text-anchor="end" font-family="sans-serif" font-size="14" fill="#34495e">Icarus</text>
<rect x="180" y="242" width="480" height="30" rx="4" fill="#ecf0f1"/>
<rect x="180" y="242" width="244" height="30" rx="4" fill="#FFEAA7" opacity="0.85"/>
<text x="432" y="262" font-family="sans-serif" font-size="13" font-weight="bold" fill="#2c3e50">⭐ 5.1k</text>
<text x="170" y="300" text-anchor="end" font-family="sans-serif" font-size="14" fill="#34495e">Volantis</text>
<rect x="180" y="280" width="480" height="30" rx="4" fill="#ecf0f1"/>
<rect x="180" y="280" width="153" height="30" rx="4" fill="#DDA0DD" opacity="0.85"/>
<text x="341" y="300" font-family="sans-serif" font-size="13" font-weight="bold" fill="#2c3e50">⭐ 3.2k</text>
<text x="170" y="338" text-anchor="end" font-family="sans-serif" font-size="14" fill="#34495e">Stellar</text>
<rect x="180" y="318" width="480" height="30" rx="4" fill="#ecf0f1"/>
<rect x="180" y="318" width="100" height="30" rx="4" fill="#98D8C8" opacity="0.85"/>
<text x="288" y="338" font-family="sans-serif" font-size="13" font-weight="bold" fill="#2c3e50">⭐ 2.1k</text>
<text x="170" y="376" text-anchor="end" font-family="sans-serif" font-size="14" fill="#34495e">Aria</text>
<rect x="180" y="356" width="480" height="30" rx="4" fill="#ecf0f1"/>
<rect x="180" y="356" width="86" height="30" rx="4" fill="#F7DC6F" opacity="0.85"/>
<text x="274" y="376" font-family="sans-serif" font-size="13" font-weight="bold" fill="#2c3e50">⭐ 1.8k</text>
<text x="170" y="414" text-anchor="end" font-family="sans-serif" font-size="14" fill="#34495e">Redefine</text>
<rect x="180" y="394" width="480" height="30" rx="4" fill="#ecf0f1"/>
<rect x="180" y="394" width="120" height="30" rx="4" fill="#BB8FCE" opacity="0.85"/>
<text x="308" y="414" font-family="sans-serif" font-size="13" font-weight="bold" fill="#2c3e50">⭐ 2.5k</text>
<text x="170" y="452" text-anchor="end" font-family="sans-serif" font-size="14" fill="#34495e">AnZhiYu</text>
<rect x="180" y="432" width="480" height="30" rx="4" fill="#ecf0f1"/>
<rect x="180" y="432" width="72" height="30" rx="4" fill="#85C1E9" opacity="0.85"/>
<text x="260" y="452" font-family="sans-serif" font-size="13" font-weight="bold" fill="#2c3e50">⭐ 1.5k</text>
<text x="400" y="508" text-anchor="middle" font-family="sans-serif" font-size="11" fill="#bdc3c7">Data: GitHub Theme Repositories</text>
</svg>